<svg xmlns="http://www.w3.org/2000/svg" xmlns:xlink="http://www.w3.org/1999/xlink" width="500" zoomAndPan="magnify" viewBox="0 0 375 374.999991" height="500" preserveAspectRatio="xMidYMid meet" version="1.0"><defs><clipPath id="a1340d0866"><path d="M 27 8.546875 L 370 8.546875 L 370 364 L 27 364 Z M 27 8.546875 " clip-rule="nonzero"/></clipPath><clipPath id="119cede8b3"><path d="M 4.214844 125 L 158 125 L 158 366.296875 L 4.214844 366.296875 Z M 4.214844 125 " clip-rule="nonzero"/></clipPath><clipPath id="96012bd793"><path d="M 49 290 L 100 290 L 100 366.296875 L 49 366.296875 Z M 49 290 " clip-rule="nonzero"/></clipPath><clipPath id="8b4e1ac5ff"><path d="M 16 71 L 370.964844 71 L 370.964844 366.296875 L 16 366.296875 Z M 16 71 " clip-rule="nonzero"/></clipPath></defs><g clip-path="url(#a1340d0866)"><path fill="#cc0000" d="M 249.390625 123.769531 C 257.230469 142.5 250.214844 169.375 225.988281 192.875 C 204.355469 213.867188 175.492188 232.851562 163.539062 261.480469 C 146.828125 301.523438 165.730469 341.464844 205.875 356.265625 C 255.289062 374.492188 330.0625 359.957031 361.910156 314.992188 C 381.117188 287.898438 362.417969 265.761719 328.460938 282.367188 C 300.253906 296.175781 277.257812 305.433594 261.511719 306.410156 C 235.429688 308.046875 225.71875 283.769531 256.199219 263.519531 C 260.601562 260.601562 264.898438 257.601562 269.097656 254.5 C 314.941406 220.628906 348.121094 176.183594 346.367188 128.65625 C 343.667969 55.535156 267.933594 1.027344 196.164062 9.40625 C 130.222656 17.113281 61.6875 68.148438 27.226562 151.6875 C 48.535156 117.089844 142.074219 86.339844 201.742188 94.851562 C 224.539062 98.105469 242.375 107.09375 249.371094 123.785156 Z M 249.390625 123.769531 " fill-opacity="1" fill-rule="evenodd"/></g><g clip-path="url(#119cede8b3)"><path fill="#cc0000" d="M 99.21875 291.339844 C 100.683594 218.199219 126.96875 158.953125 157.652344 125.300781 L 157.402344 125.570312 C 54.84375 139.195312 -0.746094 191.089844 5.222656 292.703125 C 10.855469 388.839844 97.175781 393.628906 99.21875 291.339844 Z M 99.21875 291.339844 " fill-opacity="1" fill-rule="evenodd"/></g><g clip-path="url(#96012bd793)"><path fill="#262626" d="M 54.152344 366.449219 C 52.582031 366.449219 51.015625 366.332031 49.445312 366.09375 C 51.015625 366.332031 52.582031 366.449219 54.152344 366.449219 C 75.664062 366.449219 96.605469 343.824219 99.03125 296.835938 C 96.621094 343.804688 75.679688 366.449219 54.152344 366.449219 Z M 49.414062 366.078125 C 49.398438 366.078125 49.398438 366.078125 49.378906 366.078125 C 49.378906 366.078125 49.398438 366.078125 49.414062 366.078125 Z M 49.347656 366.0625 C 49.328125 366.0625 49.328125 366.0625 49.3125 366.0625 C 49.328125 366.0625 49.328125 366.0625 49.347656 366.0625 Z M 49.261719 366.042969 C 49.261719 366.042969 49.261719 366.042969 49.246094 366.042969 C 49.246094 366.042969 49.246094 366.042969 49.261719 366.042969 Z M 99.234375 291.640625 C 99.234375 291.539062 99.234375 291.441406 99.234375 291.339844 C 99.234375 291.253906 99.234375 291.171875 99.234375 291.085938 C 99.234375 291.171875 99.234375 291.253906 99.234375 291.339844 C 99.234375 291.441406 99.234375 291.539062 99.234375 291.640625 Z M 99.25 290.917969 C 99.25 290.898438 99.25 290.882812 99.25 290.867188 C 99.25 290.882812 99.25 290.898438 99.25 290.917969 Z M 99.25 290.917969 " fill-opacity="1" fill-rule="nonzero"/></g><g clip-path="url(#8b4e1ac5ff)"><path fill="#990303" d="M 54.152344 366.449219 C 52.582031 366.449219 51.015625 366.332031 49.445312 366.09375 C 49.429688 366.09375 49.414062 366.09375 49.414062 366.078125 C 49.398438 366.078125 49.398438 366.078125 49.378906 366.078125 C 49.363281 366.078125 49.347656 366.078125 49.328125 366.0625 C 49.3125 366.0625 49.3125 366.0625 49.296875 366.0625 C 49.277344 366.0625 49.261719 366.042969 49.226562 366.042969 C 49.226562 366.042969 49.226562 366.042969 49.210938 366.042969 C 37.121094 364.105469 25.285156 355.050781 16.890625 339.1875 C 23.011719 341.042969 28.558594 341.953125 33.648438 341.953125 C 69.8125 341.953125 82.914062 295.976562 110.464844 214.726562 C 103.921875 237.707031 99.789062 263.300781 99.199219 290.867188 C 99.199219 290.882812 99.199219 290.898438 99.199219 290.917969 C 99.199219 290.96875 99.199219 291.019531 99.199219 291.070312 C 99.199219 291.152344 99.199219 291.238281 99.199219 291.320312 C 99.199219 291.421875 99.199219 291.523438 99.199219 291.625 C 99.167969 293.394531 99.101562 295.113281 99.015625 296.816406 C 96.605469 343.789062 75.664062 366.433594 54.132812 366.433594 Z M 184.292969 344.429688 C 190.546875 349.269531 197.796875 353.28125 205.890625 356.265625 C 231.972656 365.894531 265.121094 366.382812 295.28125 358.085938 C 295.011719 358.136719 294.742188 358.171875 294.488281 358.222656 C 323.351562 353.769531 391.113281 310.375 363.867188 281.085938 C 332.035156 334.855469 236.152344 363.109375 184.277344 344.429688 Z M 294.488281 358.203125 C 294.035156 358.273438 293.578125 358.339844 293.125 358.390625 C 293.5625 358.339844 294.015625 358.273438 294.488281 358.203125 Z M 293.125 358.390625 C 292.683594 358.441406 292.246094 358.476562 291.824219 358.507812 C 292.246094 358.476562 292.683594 358.441406 293.125 358.390625 Z M 247.957031 161.398438 C 250.128906 155.96875 251.511719 150.625 252.101562 145.5 C 252.101562 145.5 252.101562 145.484375 252.101562 145.484375 C 252.101562 145.464844 252.101562 145.449219 252.101562 145.433594 C 252.101562 145.414062 252.101562 145.414062 252.101562 145.398438 C 252.101562 145.382812 252.101562 145.382812 252.101562 145.367188 C 252.101562 145.347656 252.101562 145.332031 252.101562 145.332031 C 252.101562 145.316406 252.101562 145.316406 252.101562 145.296875 C 252.101562 145.28125 252.101562 145.265625 252.101562 145.246094 C 252.101562 145.246094 252.101562 145.230469 252.101562 145.230469 C 252.101562 145.214844 252.101562 145.195312 252.121094 145.164062 C 252.121094 145.164062 252.121094 145.164062 252.121094 145.144531 C 252.964844 137.375 252.019531 130.089844 249.355469 123.734375 C 242.410156 107.144531 224.722656 98.15625 202.128906 94.871094 C 201.996094 94.851562 201.859375 94.835938 201.726562 94.820312 C 194.898438 93.839844 187.648438 93.386719 180.113281 93.386719 C 155.429688 93.386719 127.726562 98.308594 102.523438 106.300781 C 102.488281 106.316406 102.453125 106.316406 102.421875 106.335938 C 102.386719 106.351562 102.355469 106.351562 102.320312 106.367188 C 72.796875 115.742188 46.714844 129.332031 33.007812 144.152344 C 72.410156 96.386719 142.851562 71.503906 196.144531 71.503906 C 253.738281 71.503906 291.300781 100.621094 247.921875 161.414062 Z M 237.570312 313.324219 C 205.011719 313.324219 217.742188 275.828125 253.855469 265.15625 C 240.132812 275.050781 235.699219 285.707031 237.804688 293.714844 C 237.804688 293.714844 237.804688 293.714844 237.804688 293.734375 C 237.804688 293.75 237.804688 293.75 237.824219 293.765625 C 237.824219 293.765625 237.824219 293.785156 237.824219 293.785156 C 237.824219 293.800781 237.839844 293.800781 237.839844 293.816406 C 237.839844 293.816406 237.839844 293.832031 237.839844 293.832031 C 237.839844 293.832031 237.839844 293.851562 237.839844 293.851562 C 237.839844 293.867188 237.839844 293.867188 237.839844 293.882812 C 237.839844 293.902344 237.839844 293.902344 237.839844 293.902344 C 237.839844 293.917969 237.855469 293.917969 237.855469 293.933594 C 237.855469 293.933594 237.855469 293.953125 237.855469 293.953125 C 237.855469 293.96875 237.855469 293.96875 237.855469 293.984375 C 237.855469 293.984375 237.855469 293.984375 237.855469 294.003906 C 237.855469 294.019531 237.875 294.035156 237.875 294.035156 C 238.816406 297.308594 240.859375 300.121094 243.824219 302.246094 C 243.824219 302.246094 243.824219 302.246094 243.84375 302.246094 C 243.859375 302.265625 243.859375 302.265625 243.875 302.265625 C 243.875 302.265625 243.890625 302.265625 243.890625 302.28125 C 243.890625 302.28125 243.910156 302.296875 243.910156 302.296875 C 243.925781 302.296875 243.925781 302.3125 243.925781 302.3125 C 243.925781 302.3125 243.925781 302.332031 243.941406 302.332031 C 243.960938 302.332031 243.960938 302.347656 243.976562 302.347656 C 243.976562 302.347656 243.976562 302.347656 243.992188 302.347656 C 244.011719 302.363281 244.027344 302.363281 244.027344 302.382812 C 247.753906 304.976562 252.894531 306.511719 259.066406 306.511719 C 259.875 306.511719 260.703125 306.480469 261.542969 306.429688 C 264.730469 306.226562 268.222656 305.6875 271.996094 304.84375 C 257.28125 310.878906 245.933594 313.339844 237.570312 313.339844 Z M 237.570312 313.324219 " fill-opacity="1" fill-rule="nonzero"/></g><path fill="#262626" d="M 259.066406 306.496094 C 252.894531 306.496094 247.753906 304.976562 244.027344 302.363281 C 247.753906 304.960938 252.878906 306.480469 259.066406 306.480469 C 259.875 306.480469 260.703125 306.445312 261.546875 306.394531 C 264.730469 306.191406 268.238281 305.652344 272.015625 304.808594 C 268.238281 305.652344 264.75 306.191406 261.5625 306.394531 C 260.71875 306.445312 259.894531 306.480469 259.082031 306.480469 Z M 244.027344 302.363281 C 244.011719 302.363281 244.011719 302.347656 243.992188 302.332031 C 244.011719 302.347656 244.027344 302.347656 244.027344 302.363281 Z M 243.976562 302.332031 C 243.976562 302.3125 243.960938 302.3125 243.941406 302.3125 C 243.960938 302.3125 243.960938 302.332031 243.976562 302.332031 Z M 243.925781 302.296875 C 243.910156 302.296875 243.910156 302.28125 243.910156 302.28125 C 243.925781 302.28125 243.925781 302.296875 243.925781 302.296875 Z M 243.875 302.265625 C 243.875 302.265625 243.859375 302.265625 243.859375 302.246094 C 243.859375 302.246094 243.875 302.246094 243.875 302.265625 Z M 243.824219 302.230469 C 243.824219 302.230469 243.808594 302.230469 243.808594 302.230469 C 243.808594 302.230469 243.808594 302.230469 243.824219 302.230469 Z M 237.875 294.019531 Z M 237.855469 293.96875 C 237.855469 293.96875 237.855469 293.96875 237.855469 293.953125 C 237.855469 293.953125 237.855469 293.953125 237.855469 293.96875 Z M 237.839844 293.917969 C 237.839844 293.917969 237.839844 293.902344 237.839844 293.902344 C 237.839844 293.902344 237.839844 293.917969 237.839844 293.917969 Z M 237.824219 293.867188 C 237.824219 293.867188 237.824219 293.851562 237.824219 293.851562 C 237.824219 293.867188 237.824219 293.867188 237.824219 293.867188 Z M 237.804688 293.816406 C 237.804688 293.800781 237.804688 293.800781 237.804688 293.800781 C 237.804688 293.800781 237.804688 293.816406 237.804688 293.816406 Z M 237.789062 293.78125 C 237.789062 293.765625 237.789062 293.765625 237.773438 293.75 C 237.773438 293.765625 237.789062 293.765625 237.789062 293.78125 Z M 237.773438 293.75 C 237.773438 293.734375 237.753906 293.714844 237.753906 293.714844 C 237.753906 293.734375 237.753906 293.734375 237.773438 293.75 Z M 237.753906 293.699219 C 235.632812 285.691406 240.082031 275.035156 253.804688 265.136719 C 240.097656 275.035156 235.648438 285.691406 237.753906 293.699219 Z M 237.753906 293.699219 " fill-opacity="1" fill-rule="nonzero"/><path fill="#262626" d="M 252.101562 145.5 C 252.101562 145.5 252.101562 145.5 252.101562 145.484375 C 252.101562 145.484375 252.101562 145.5 252.101562 145.5 Z M 252.101562 145.449219 C 252.101562 145.433594 252.101562 145.433594 252.101562 145.414062 C 252.101562 145.433594 252.101562 145.433594 252.101562 145.449219 Z M 252.121094 145.382812 C 252.121094 145.367188 252.121094 145.347656 252.121094 145.347656 C 252.121094 145.367188 252.121094 145.382812 252.121094 145.382812 Z M 252.136719 145.316406 C 252.136719 145.296875 252.136719 145.28125 252.136719 145.265625 C 252.136719 145.28125 252.136719 145.296875 252.136719 145.316406 Z M 252.136719 145.246094 C 252.136719 145.230469 252.136719 145.195312 252.152344 145.179688 C 252.152344 145.195312 252.152344 145.214844 252.136719 145.246094 Z M 252.152344 145.179688 C 252.996094 137.40625 252.054688 130.125 249.390625 123.769531 C 252.035156 130.125 252.996094 137.40625 252.152344 145.179688 Z M 102.371094 106.386719 C 102.402344 106.367188 102.4375 106.367188 102.472656 106.351562 C 102.4375 106.367188 102.402344 106.367188 102.371094 106.386719 Z M 102.574219 106.316406 C 127.777344 98.328125 155.496094 93.402344 180.160156 93.402344 C 187.714844 93.402344 194.964844 93.859375 201.777344 94.835938 C 201.910156 94.851562 202.046875 94.871094 202.179688 94.886719 C 202.046875 94.871094 201.910156 94.851562 201.777344 94.835938 C 194.964844 93.859375 187.699219 93.402344 180.160156 93.402344 C 155.480469 93.402344 127.777344 98.328125 102.574219 106.316406 Z M 102.574219 106.316406 " fill-opacity="1" fill-rule="nonzero"/></svg>