<svg xmlns="http://www.w3.org/2000/svg" xmlns:xlink="http://www.w3.org/1999/xlink" width="500" zoomAndPan="magnify" viewBox="0 0 375 374.999991" height="500" preserveAspectRatio="xMidYMid meet" version="1.0"><path fill="#cc0000" d="M 130.226562 208.84375 L 137.042969 208.84375 L 142.730469 188.78125 L 148.464844 208.84375 L 155.28125 208.84375 L 163.792969 178.445312 L 157.496094 178.445312 L 151.679688 200.984375 L 145.292969 178.445312 L 140.171875 178.445312 L 133.828125 200.984375 L 128.011719 178.445312 L 121.714844 178.445312 Z M 130.226562 208.84375 " fill-opacity="1" fill-rule="nonzero"/><path fill="#cc0000" d="M 174.757812 209.453125 C 181.140625 209.453125 186.265625 204.457031 186.265625 197.988281 C 186.265625 191.515625 181.140625 186.523438 174.757812 186.523438 C 168.375 186.523438 163.292969 191.515625 163.292969 197.988281 C 163.292969 204.457031 168.375 209.453125 174.757812 209.453125 Z M 174.757812 203.980469 C 171.457031 203.980469 168.894531 201.503906 168.894531 197.988281 C 168.894531 194.46875 171.457031 191.996094 174.757812 191.996094 C 178.101562 191.996094 180.664062 194.46875 180.664062 197.988281 C 180.664062 201.503906 178.101562 203.980469 174.757812 203.980469 Z M 174.757812 203.980469 " fill-opacity="1" fill-rule="nonzero"/><path fill="#cc0000" d="M 195.808594 190.867188 L 195.808594 187.128906 L 190.207031 187.128906 L 190.207031 208.84375 L 195.808594 208.84375 L 195.808594 198.464844 C 195.808594 193.90625 199.496094 192.601562 202.40625 192.949219 L 202.40625 186.695312 C 199.671875 186.695312 196.9375 187.914062 195.808594 190.867188 Z M 195.808594 190.867188 " fill-opacity="1" fill-rule="nonzero"/><path fill="#cc0000" d="M 225.703125 208.84375 L 216.714844 197.855469 L 225.445312 187.128906 L 218.753906 187.128906 L 211.285156 196.683594 L 211.285156 178.445312 L 205.683594 178.445312 L 205.683594 208.84375 L 211.285156 208.84375 L 211.285156 198.984375 L 219.191406 208.84375 Z M 225.703125 208.84375 " fill-opacity="1" fill-rule="nonzero"/><path fill="#cc0000" d="M 99.191406 180.988281 L 85.261719 172.945312 L 85.261719 210.300781 L 101.546875 210.300781 L 101.546875 213.917969 L 21.929688 213.917969 L 21.929688 210.300781 L 29.167969 210.300781 L 29.167969 187.285156 L 22.425781 188.972656 L 21.546875 185.460938 L 59.703125 175.921875 L 65.355469 175.921875 C 64.730469 177.402344 64.316406 178.960938 64.125 180.550781 L 63.25 187.746094 L 72.59375 182.351562 L 72.59375 210.300781 L 81.640625 210.300781 L 81.640625 172.945312 L 67.714844 180.988281 C 68.117188 177.679688 69.726562 174.554688 72.359375 172.304688 L 64.90625 172.304688 C 67.378906 169.007812 71.324219 166.875 75.761719 166.875 C 76.15625 166.875 76.546875 166.890625 76.929688 166.925781 L 66.8125 161.082031 C 70.605469 159.464844 75.082031 159.589844 78.929688 161.8125 C 80.808594 162.894531 82.332031 164.363281 83.453125 166.058594 C 84.574219 164.363281 86.097656 162.894531 87.976562 161.8125 C 91.820312 159.589844 96.300781 159.464844 100.09375 161.082031 L 89.976562 166.925781 C 90.359375 166.890625 90.75 166.875 91.144531 166.875 C 95.582031 166.875 99.527344 169.007812 102 172.304688 L 94.546875 172.304688 C 97.179688 174.554688 98.789062 177.679688 99.191406 180.988281 Z M 65.355469 210.300781 L 65.355469 192.207031 L 54.5 192.207031 L 54.5 210.300781 Z M 45.453125 195.824219 C 45.453125 197.824219 43.832031 199.445312 41.835938 199.445312 C 39.835938 199.445312 38.214844 197.824219 38.214844 195.824219 C 38.214844 193.828125 39.835938 192.207031 41.835938 192.207031 C 43.832031 192.207031 45.453125 193.828125 45.453125 195.824219 Z M 45.453125 195.824219 " fill-opacity="1" fill-rule="evenodd"/><path fill="#cc0000" d="M 238.835938 209.453125 C 243.09375 209.453125 246.785156 207.195312 248.652344 203.808594 L 243.789062 201.027344 C 242.917969 202.808594 241.050781 203.894531 238.792969 203.894531 C 235.449219 203.894531 232.976562 201.417969 232.976562 197.988281 C 232.976562 194.511719 235.449219 192.039062 238.792969 192.039062 C 241.007812 192.039062 242.875 193.167969 243.746094 194.949219 L 248.566406 192.125 C 246.785156 188.78125 243.09375 186.523438 238.835938 186.523438 C 232.234375 186.523438 227.371094 191.515625 227.371094 197.988281 C 227.371094 204.457031 232.234375 209.453125 238.835938 209.453125 Z M 238.835938 209.453125 " fill-opacity="1" fill-rule="nonzero"/><path fill="#cc0000" d="M 267.777344 187.132812 L 267.777344 189.695312 C 266.214844 187.738281 263.867188 186.523438 260.699219 186.523438 C 254.921875 186.523438 250.144531 191.515625 250.144531 197.988281 C 250.144531 204.457031 254.921875 209.453125 260.699219 209.453125 C 263.867188 209.453125 266.214844 208.234375 267.777344 206.28125 L 267.777344 208.84375 L 273.378906 208.84375 L 273.378906 187.132812 Z M 261.742188 204.109375 C 258.308594 204.109375 255.746094 201.636719 255.746094 197.988281 C 255.746094 194.339844 258.308594 191.863281 261.742188 191.863281 C 265.214844 191.863281 267.777344 194.339844 267.777344 197.988281 C 267.777344 201.636719 265.214844 204.109375 261.742188 204.109375 Z M 261.742188 204.109375 " fill-opacity="1" fill-rule="nonzero"/><path fill="#cc0000" d="M 290.878906 192.515625 L 290.878906 187.132812 L 285.972656 187.132812 L 285.972656 181.050781 L 280.371094 182.746094 L 280.371094 187.132812 L 276.59375 187.132812 L 276.59375 192.515625 L 280.371094 192.515625 L 280.371094 201.546875 C 280.371094 207.410156 283.015625 209.710938 290.878906 208.84375 L 290.878906 203.761719 C 287.664062 203.9375 285.972656 203.894531 285.972656 201.546875 L 285.972656 192.515625 Z M 290.878906 192.515625 " fill-opacity="1" fill-rule="nonzero"/><path fill="#cc0000" d="M 297.605469 184.527344 C 299.515625 184.527344 301.082031 182.960938 301.082031 181.09375 C 301.082031 179.226562 299.515625 177.621094 297.605469 177.621094 C 295.738281 177.621094 294.175781 179.226562 294.175781 181.09375 C 294.175781 182.960938 295.738281 184.527344 297.605469 184.527344 Z M 294.828125 208.84375 L 300.429688 208.84375 L 300.429688 187.132812 L 294.828125 187.132812 Z M 294.828125 208.84375 " fill-opacity="1" fill-rule="nonzero"/><path fill="#cc0000" d="M 315.894531 209.453125 C 322.277344 209.453125 327.398438 204.457031 327.398438 197.988281 C 327.398438 191.515625 322.277344 186.523438 315.894531 186.523438 C 309.507812 186.523438 304.429688 191.515625 304.429688 197.988281 C 304.429688 204.457031 309.507812 209.453125 315.894531 209.453125 Z M 315.894531 203.980469 C 312.59375 203.980469 310.03125 201.503906 310.03125 197.988281 C 310.03125 194.46875 312.59375 191.996094 315.894531 191.996094 C 319.234375 191.996094 321.796875 194.46875 321.796875 197.988281 C 321.796875 201.503906 319.234375 203.980469 315.894531 203.980469 Z M 315.894531 203.980469 " fill-opacity="1" fill-rule="nonzero"/><path fill="#cc0000" d="M 343.414062 186.523438 C 340.503906 186.523438 338.246094 187.609375 336.941406 189.5625 L 336.941406 187.132812 L 331.339844 187.132812 L 331.339844 208.84375 L 336.941406 208.84375 L 336.941406 197.121094 C 336.941406 193.339844 338.984375 191.734375 341.71875 191.734375 C 344.238281 191.734375 346.019531 193.253906 346.019531 196.207031 L 346.019531 208.84375 L 351.621094 208.84375 L 351.621094 195.511719 C 351.621094 189.738281 348.015625 186.523438 343.414062 186.523438 Z M 343.414062 186.523438 " fill-opacity="1" fill-rule="nonzero"/></svg>